<?xml version="1.0" encoding="UTF-8" standalone="no"?>
<!-- Created with Inkscape (http://www.inkscape.org/) -->

<svg
   xmlns:dc="http://purl.org/dc/elements/1.1/"
   xmlns:cc="http://creativecommons.org/ns#"
   xmlns:rdf="http://www.w3.org/1999/02/22-rdf-syntax-ns#"
   xmlns:svg="http://www.w3.org/2000/svg"
   xmlns="http://www.w3.org/2000/svg"
   xmlns:sodipodi="http://sodipodi.sourceforge.net/DTD/sodipodi-0.dtd"
   xmlns:inkscape="http://www.inkscape.org/namespaces/inkscape"
   width="549.98181"
   height="563.97681"
   id="svg9895"
   version="1.1"
   inkscape:version="0.48.4 r9939"
   sodipodi:docname="rk_state_machine.svg">
  <defs
     id="defs3">
    <marker
       inkscape:stockid="Arrow1Mstart"
       orient="auto"
       refY="0"
       refX="0"
       id="Arrow1Mstart"
       style="overflow:visible">
      <path
         id="path4078"
         d="M 0,0 5,-5 -12.5,0 5,5 0,0 z"
         style="fill-rule:evenodd;stroke:#000000;stroke-width:1pt"
         transform="matrix(0.4,0,0,0.4,4,0)"
         inkscape:connector-curvature="0" />
    </marker>
    <marker
       inkscape:stockid="Arrow1Mend"
       orient="auto"
       refY="0"
       refX="0"
       id="Arrow1Mend"
       style="overflow:visible">
      <path
         id="path4081"
         d="M 0,0 5,-5 -12.5,0 5,5 0,0 z"
         style="fill-rule:evenodd;stroke:#000000;stroke-width:1pt"
         transform="matrix(-0.4,0,0,-0.4,-4,0)"
         inkscape:connector-curvature="0" />
    </marker>
    <marker
       inkscape:stockid="Arrow1Mend"
       orient="auto"
       refY="0"
       refX="0"
       id="Arrow1Mend-6"
       style="overflow:visible">
      <path
         inkscape:connector-curvature="0"
         id="path4081-9"
         d="M 0,0 5,-5 -12.5,0 5,5 0,0 z"
         style="fill-rule:evenodd;stroke:#000000;stroke-width:1pt"
         transform="matrix(-0.4,0,0,-0.4,-4,0)" />
    </marker>
    <marker
       inkscape:stockid="Arrow1Mend"
       orient="auto"
       refY="0"
       refX="0"
       id="Arrow1Mend-4"
       style="overflow:visible">
      <path
         inkscape:connector-curvature="0"
         id="path4081-7"
         d="M 0,0 5,-5 -12.5,0 5,5 0,0 z"
         style="fill-rule:evenodd;stroke:#000000;stroke-width:1pt"
         transform="matrix(-0.4,0,0,-0.4,-4,0)" />
    </marker>
    <marker
       inkscape:stockid="Arrow1Mend"
       orient="auto"
       refY="0"
       refX="0"
       id="Arrow1Mend-7"
       style="overflow:visible">
      <path
         inkscape:connector-curvature="0"
         id="path4081-8"
         d="M 0,0 5,-5 -12.5,0 5,5 0,0 z"
         style="fill-rule:evenodd;stroke:#000000;stroke-width:1pt"
         transform="matrix(-0.4,0,0,-0.4,-4,0)" />
    </marker>
    <marker
       inkscape:stockid="Arrow1Mend"
       orient="auto"
       refY="0"
       refX="0"
       id="Arrow1Mend-45"
       style="overflow:visible">
      <path
         inkscape:connector-curvature="0"
         id="path4081-5"
         d="M 0,0 5,-5 -12.5,0 5,5 0,0 z"
         style="fill-rule:evenodd;stroke:#000000;stroke-width:1pt"
         transform="matrix(-0.4,0,0,-0.4,-4,0)" />
    </marker>
    <marker
       inkscape:stockid="Arrow1Mend"
       orient="auto"
       refY="0"
       refX="0"
       id="Arrow1Mend-9"
       style="overflow:visible">
      <path
         inkscape:connector-curvature="0"
         id="path4081-51"
         d="M 0,0 5,-5 -12.5,0 5,5 0,0 z"
         style="fill-rule:evenodd;stroke:#000000;stroke-width:1pt"
         transform="matrix(-0.4,0,0,-0.4,-4,0)" />
    </marker>
    <marker
       inkscape:stockid="Arrow1Mend"
       orient="auto"
       refY="0"
       refX="0"
       id="Arrow1Mend-93"
       style="overflow:visible">
      <path
         inkscape:connector-curvature="0"
         id="path4081-3"
         d="M 0,0 5,-5 -12.5,0 5,5 0,0 z"
         style="fill-rule:evenodd;stroke:#000000;stroke-width:1pt"
         transform="matrix(-0.4,0,0,-0.4,-4,0)" />
    </marker>
    <marker
       inkscape:stockid="Arrow1Mend"
       orient="auto"
       refY="0"
       refX="0"
       id="Arrow1Mend-77"
       style="overflow:visible">
      <path
         inkscape:connector-curvature="0"
         id="path4081-512"
         d="M 0,0 5,-5 -12.5,0 5,5 0,0 z"
         style="fill-rule:evenodd;stroke:#000000;stroke-width:1pt"
         transform="matrix(-0.4,0,0,-0.4,-4,0)" />
    </marker>
    <marker
       inkscape:stockid="Arrow1Mend"
       orient="auto"
       refY="0"
       refX="0"
       id="Arrow1Mend-8"
       style="overflow:visible">
      <path
         inkscape:connector-curvature="0"
         id="path4081-2"
         d="M 0,0 5,-5 -12.5,0 5,5 0,0 z"
         style="fill-rule:evenodd;stroke:#000000;stroke-width:1pt"
         transform="matrix(-0.4,0,0,-0.4,-4,0)" />
    </marker>
    <marker
       inkscape:stockid="Arrow1Mend"
       orient="auto"
       refY="0"
       refX="0"
       id="Arrow1Mend-99"
       style="overflow:visible">
      <path
         inkscape:connector-curvature="0"
         id="path4081-0"
         d="M 0,0 5,-5 -12.5,0 5,5 0,0 z"
         style="fill-rule:evenodd;stroke:#000000;stroke-width:1pt"
         transform="matrix(-0.4,0,0,-0.4,-4,0)" />
    </marker>
    <marker
       inkscape:stockid="Arrow1Mend"
       orient="auto"
       refY="0"
       refX="0"
       id="Arrow1Mend-772"
       style="overflow:visible">
      <path
         inkscape:connector-curvature="0"
         id="path4081-30"
         d="M 0,0 5,-5 -12.5,0 5,5 0,0 z"
         style="fill-rule:evenodd;stroke:#000000;stroke-width:1pt"
         transform="matrix(-0.4,0,0,-0.4,-4,0)" />
    </marker>
    <marker
       inkscape:stockid="Arrow1Mend"
       orient="auto"
       refY="0"
       refX="0"
       id="Arrow1Mend-2"
       style="overflow:visible">
      <path
         inkscape:connector-curvature="0"
         id="path4081-92"
         d="M 0,0 5,-5 -12.5,0 5,5 0,0 z"
         style="fill-rule:evenodd;stroke:#000000;stroke-width:1pt"
         transform="matrix(-0.4,0,0,-0.4,-4,0)" />
    </marker>
    <marker
       inkscape:stockid="Arrow1Mend"
       orient="auto"
       refY="0"
       refX="0"
       id="Arrow1Mend-1"
       style="overflow:visible">
      <path
         inkscape:connector-curvature="0"
         id="path4081-90"
         d="M 0,0 5,-5 -12.5,0 5,5 0,0 z"
         style="fill-rule:evenodd;stroke:#000000;stroke-width:1pt"
         transform="matrix(-0.4,0,0,-0.4,-4,0)" />
    </marker>
    <marker
       inkscape:stockid="Arrow1Mend"
       orient="auto"
       refY="0"
       refX="0"
       id="marker11033"
       style="overflow:visible">
      <path
         inkscape:connector-curvature="0"
         id="path11035"
         d="M 0,0 5,-5 -12.5,0 5,5 0,0 z"
         style="fill-rule:evenodd;stroke:#000000;stroke-width:1pt"
         transform="matrix(-0.4,0,0,-0.4,-4,0)" />
    </marker>
    <marker
       inkscape:stockid="Arrow1Mend"
       orient="auto"
       refY="0"
       refX="0"
       id="Arrow1Mend-24"
       style="overflow:visible">
      <path
         inkscape:connector-curvature="0"
         id="path4081-80"
         d="M 0,0 5,-5 -12.5,0 5,5 0,0 z"
         style="fill-rule:evenodd;stroke:#000000;stroke-width:1pt"
         transform="matrix(-0.4,0,0,-0.4,-4,0)" />
    </marker>
    <marker
       inkscape:stockid="Arrow1Mend"
       orient="auto"
       refY="0"
       refX="0"
       id="Arrow1Mend-84"
       style="overflow:visible">
      <path
         inkscape:connector-curvature="0"
         id="path4081-33"
         d="M 0,0 5,-5 -12.5,0 5,5 0,0 z"
         style="fill-rule:evenodd;stroke:#000000;stroke-width:1pt"
         transform="matrix(-0.4,0,0,-0.4,-4,0)" />
    </marker>
    <marker
       inkscape:stockid="Arrow1Mend"
       orient="auto"
       refY="0"
       refX="0"
       id="Arrow1Mend-48"
       style="overflow:visible">
      <path
         inkscape:connector-curvature="0"
         id="path4081-1"
         d="M 0,0 5,-5 -12.5,0 5,5 0,0 z"
         style="fill-rule:evenodd;stroke:#000000;stroke-width:1pt"
         transform="matrix(-0.4,0,0,-0.4,-4,0)" />
    </marker>
    <marker
       inkscape:stockid="Arrow1Mend"
       orient="auto"
       refY="0"
       refX="0"
       id="Arrow1Mend-5"
       style="overflow:visible">
      <path
         inkscape:connector-curvature="0"
         id="path4081-32"
         d="M 0,0 5,-5 -12.5,0 5,5 0,0 z"
         style="fill-rule:evenodd;stroke:#000000;stroke-width:1pt"
         transform="matrix(-0.4,0,0,-0.4,-4,0)" />
    </marker>
  </defs>
  <sodipodi:namedview
     inkscape:document-units="mm"
     id="base"
     pagecolor="#ffffff"
     bordercolor="#666666"
     borderopacity="1.0"
     inkscape:pageopacity="0.0"
     inkscape:pageshadow="2"
     inkscape:zoom="0.98994949"
     inkscape:cx="164.08452"
     inkscape:cy="216.25976"
     inkscape:current-layer="layer1"
     showgrid="false"
     inkscape:window-width="1756"
     inkscape:window-height="1106"
     inkscape:window-x="0"
     inkscape:window-y="24"
     inkscape:window-maximized="0"
     units="mm"
     fit-margin-top="0"
     fit-margin-left="0"
     fit-margin-right="0"
     fit-margin-bottom="0" />
  <metadata
     id="metadata4">
    <rdf:RDF>
      <cc:Work
         rdf:about="">
        <dc:format>image/svg+xml</dc:format>
        <dc:type
           rdf:resource="http://purl.org/dc/dcmitype/StillImage" />
        <dc:title></dc:title>
      </cc:Work>
    </rdf:RDF>
  </metadata>
  <g
     inkscape:label="Layer 1"
     inkscape:groupmode="layer"
     id="layer1"
     transform="translate(-254.01817,-2.3853768)">
    <path
       sodipodi:type="arc"
       style="fill:#579bd3;fill-opacity:1;stroke:#000000;stroke-width:3;stroke-linecap:butt;stroke-linejoin:miter;stroke-miterlimit:4;stroke-opacity:1;stroke-dasharray:none"
       id="path9901"
       sodipodi:cx="383.21429"
       sodipodi:cy="137.00504"
       sodipodi:rx="76.071426"
       sodipodi:ry="37.5"
       d="m 459.28572,137.00504 c 0,20.71067 -34.05834,37.5 -76.07143,37.5 -42.01308,0 -76.07142,-16.78933 -76.07142,-37.5 0,-20.71068 34.05834,-37.500005 76.07142,-37.500005 42.01309,0 76.07143,16.789325 76.07143,37.500005 z"
       transform="translate(2.7832031e-6,6.1035156e-5)" />
    <text
       xml:space="preserve"
       style="font-size:40px;font-style:normal;font-weight:normal;line-height:125%;letter-spacing:0px;word-spacing:0px;fill:#000000;fill-opacity:1;stroke:none;font-family:Sans"
       x="355.75433"
       y="147.02658"
       id="text9903"
       sodipodi:linespacing="125%"><tspan
         style="font-size:28px"
         sodipodi:role="line"
         id="tspan9905"
         x="355.75433"
         y="147.02658">INIT</tspan></text>
    <path
       transform="translate(2.7832031e-6,130.11908)"
       sodipodi:type="arc"
       style="fill:#579bd3;fill-opacity:1;stroke:#000000;stroke-width:3;stroke-linecap:butt;stroke-linejoin:miter;stroke-miterlimit:4;stroke-opacity:1;stroke-dasharray:none"
       id="path9901-9"
       sodipodi:cx="383.21429"
       sodipodi:cy="137.00504"
       sodipodi:rx="76.071426"
       sodipodi:ry="37.5"
       d="m 459.28572,137.00504 c 0,20.71067 -34.05834,37.5 -76.07143,37.5 -42.01308,0 -76.07142,-16.78933 -76.07142,-37.5 0,-20.71068 34.05834,-37.500005 76.07142,-37.500005 42.01309,0 76.07143,16.789325 76.07143,37.500005 z" />
    <text
       xml:space="preserve"
       style="font-size:40px;font-style:normal;font-weight:normal;line-height:125%;letter-spacing:0px;word-spacing:0px;fill:#000000;fill-opacity:1;stroke:none;font-family:Sans"
       x="333.7016"
       y="277.15244"
       id="text9903-1"
       sodipodi:linespacing="125%"><tspan
         style="font-size:28px"
         sodipodi:role="line"
         id="tspan9905-1"
         x="333.7016"
         y="277.15244">PREOP</tspan></text>
    <path
       transform="translate(2.7832031e-6,260.2381)"
       sodipodi:type="arc"
       style="fill:#579bd3;fill-opacity:1;stroke:#000000;stroke-width:3;stroke-linecap:butt;stroke-linejoin:miter;stroke-miterlimit:4;stroke-opacity:1;stroke-dasharray:none"
       id="path9901-9-9"
       sodipodi:cx="383.21429"
       sodipodi:cy="137.00504"
       sodipodi:rx="76.071426"
       sodipodi:ry="37.5"
       d="m 459.28572,137.00504 c 0,20.71067 -34.05834,37.5 -76.07143,37.5 -42.01308,0 -76.07142,-16.78933 -76.07142,-37.5 0,-20.71068 34.05834,-37.500005 76.07142,-37.500005 42.01309,0 76.07143,16.789325 76.07143,37.500005 z" />
    <text
       xml:space="preserve"
       style="font-size:40px;font-style:normal;font-weight:normal;line-height:125%;letter-spacing:0px;word-spacing:0px;fill:#000000;fill-opacity:1;stroke:none;font-family:Sans"
       x="326.3598"
       y="407.27145"
       id="text9903-1-3"
       sodipodi:linespacing="125%"><tspan
         style="font-size:28px"
         sodipodi:role="line"
         id="tspan9905-1-7"
         x="326.3598"
         y="407.27145">SAFEOP</tspan></text>
    <path
       transform="translate(2.7832031e-6,390.35715)"
       sodipodi:type="arc"
       style="fill:#579bd3;fill-opacity:1;stroke:#000000;stroke-width:3;stroke-linecap:butt;stroke-linejoin:miter;stroke-miterlimit:4;stroke-opacity:1;stroke-dasharray:none"
       id="path9901-9-9-7"
       sodipodi:cx="383.21429"
       sodipodi:cy="137.00504"
       sodipodi:rx="76.071426"
       sodipodi:ry="37.5"
       d="m 459.28572,137.00504 c 0,20.71067 -34.05834,37.5 -76.07143,37.5 -42.01308,0 -76.07142,-16.78933 -76.07142,-37.5 0,-20.71068 34.05834,-37.500005 76.07142,-37.500005 42.01309,0 76.07143,16.789325 76.07143,37.500005 z" />
    <text
       xml:space="preserve"
       style="font-size:40px;font-style:normal;font-weight:normal;line-height:125%;letter-spacing:0px;word-spacing:0px;fill:#000000;fill-opacity:1;stroke:none;font-family:Sans"
       x="362.92523"
       y="537.3905"
       id="text9903-1-3-7"
       sodipodi:linespacing="125%"><tspan
         style="font-size:28px"
         sodipodi:role="line"
         id="tspan9905-1-7-1"
         x="362.92523"
         y="537.3905">OP</tspan></text>
    <path
       sodipodi:type="arc"
       style="fill:#579bd3;fill-opacity:1;stroke:#000000;stroke-width:3;stroke-linecap:butt;stroke-linejoin:miter;stroke-miterlimit:4;stroke-opacity:1;stroke-dasharray:none"
       id="path9901-6"
       sodipodi:cx="383.21429"
       sodipodi:cy="137.00504"
       sodipodi:rx="76.071426"
       sodipodi:ry="37.5"
       d="m 459.28572,137.00504 c 0,20.71067 -34.05834,37.5 -76.07143,37.5 -42.01308,0 -76.07142,-16.78933 -76.07142,-37.5 0,-20.71068 34.05834,-37.500005 76.07142,-37.500005 42.01309,0 76.07143,16.789325 76.07143,37.500005 z"
       transform="translate(343.21427,125.35715)" />
    <text
       xml:space="preserve"
       style="font-size:40px;font-style:normal;font-weight:normal;line-height:125%;letter-spacing:0px;word-spacing:0px;fill:#000000;fill-opacity:1;stroke:none;font-family:Sans"
       x="674.9198"
       y="272.3905"
       id="text9903-3"
       sodipodi:linespacing="125%"><tspan
         style="font-size:28px"
         sodipodi:role="line"
         id="tspan9905-6"
         x="674.9198"
         y="272.3905">ERROR</tspan></text>
    <path
       sodipodi:type="arc"
       style="fill:#579bd3;fill-opacity:1;stroke:#000000;stroke-width:3;stroke-linecap:butt;stroke-linejoin:miter;stroke-miterlimit:4;stroke-opacity:1;stroke-dasharray:none"
       id="path9901-5"
       sodipodi:cx="383.21429"
       sodipodi:cy="137.00504"
       sodipodi:rx="76.071426"
       sodipodi:ry="37.5"
       d="m 459.28572,137.00504 c 0,20.71067 -34.05834,37.5 -76.07143,37.5 -42.01308,0 -76.07142,-16.78933 -76.07142,-37.5 0,-20.71068 34.05834,-37.500005 76.07142,-37.500005 42.01309,0 76.07143,16.789325 76.07143,37.500005 z"
       transform="translate(343.21427,6.1035156e-5)" />
    <text
       xml:space="preserve"
       style="font-size:40px;font-style:normal;font-weight:normal;line-height:125%;letter-spacing:0px;word-spacing:0px;fill:#000000;fill-opacity:1;stroke:none;font-family:Sans"
       x="686.01453"
       y="147.03342"
       id="text9903-7"
       sodipodi:linespacing="125%"><tspan
         style="font-size:28px"
         sodipodi:role="line"
         id="tspan9905-3"
         x="686.01453"
         y="147.03342">BOOT</tspan></text>
    <path
       style="fill:none;stroke:#000000;stroke-width:3;stroke-linecap:butt;stroke-linejoin:miter;stroke-miterlimit:4;stroke-opacity:1;stroke-dasharray:none;marker-end:url(#Arrow1Mend)"
       d="m 334.00094,166.6479 c -16.96642,25.91127 -17.88189,25.92986 -3.53553,66.58701"
       id="path10076"
       inkscape:connector-curvature="0"
       sodipodi:nodetypes="cc" />
    <path
       style="fill:none;stroke:#000000;stroke-width:3;stroke-linecap:butt;stroke-linejoin:miter;stroke-miterlimit:4;stroke-opacity:1;stroke-dasharray:none;marker-end:url(#Arrow1Mend)"
       d="m 334.00094,296.27516 c -16.96642,25.91127 -17.88189,25.92986 -3.53553,66.58701"
       id="path10076-9"
       inkscape:connector-curvature="0"
       sodipodi:nodetypes="cc" />
    <path
       style="fill:none;stroke:#000000;stroke-width:3;stroke-linecap:butt;stroke-linejoin:miter;stroke-miterlimit:4;stroke-opacity:1;stroke-dasharray:none;marker-end:url(#Arrow1Mend)"
       d="m 334.00094,426.58484 c -16.96642,25.91127 -17.88189,25.92986 -3.53553,66.58701"
       id="path10076-8"
       inkscape:connector-curvature="0"
       sodipodi:nodetypes="cc" />
    <path
       style="fill:none;stroke:#000000;stroke-width:3;stroke-linecap:butt;stroke-linejoin:miter;stroke-miterlimit:4;stroke-opacity:1;stroke-dasharray:none;marker-end:url(#Arrow1Mend)"
       d="m 431.35484,238.12377 c 16.96642,-25.91127 17.88189,-25.92986 3.53553,-66.58701"
       id="path10076-2"
       inkscape:connector-curvature="0"
       sodipodi:nodetypes="cc" />
    <path
       style="fill:none;stroke:#000000;stroke-width:3;stroke-linecap:butt;stroke-linejoin:miter;stroke-miterlimit:4;stroke-opacity:1;stroke-dasharray:none;marker-end:url(#Arrow1Mend)"
       d="m 429.92628,367.4095 c 59.82356,-46.62556 61.61549,-135.41735 15.84056,-200.36022"
       id="path10076-2-8"
       inkscape:connector-curvature="0"
       sodipodi:nodetypes="cc" />
    <path
       style="fill:none;stroke:#000000;stroke-width:3;stroke-linecap:butt;stroke-linejoin:miter;stroke-miterlimit:4;stroke-opacity:1;stroke-dasharray:none;marker-end:url(#Arrow1Mend)"
       d="m 430.12209,498.64959 c 59.82356,-46.62556 129.6385,-238.76841 26.72072,-340.13986"
       id="path10076-2-8-9"
       inkscape:connector-curvature="0"
       sodipodi:nodetypes="cc" />
    <path
       style="fill:none;stroke:#000000;stroke-width:3;stroke-linecap:butt;stroke-linejoin:miter;stroke-miterlimit:4;stroke-opacity:1;stroke-dasharray:none;marker-end:url(#Arrow1Mend)"
       d="M 445.36313,503.82399 C 531.61526,392.19843 687.14449,465.05558 710.65528,306.54128"
       id="path10076-2-8-9-8"
       inkscape:connector-curvature="0"
       sodipodi:nodetypes="cc" />
    <path
       style="fill:none;stroke:#000000;stroke-width:3;stroke-linecap:butt;stroke-linejoin:miter;stroke-miterlimit:4;stroke-opacity:1;stroke-dasharray:none;marker-end:url(#Arrow1Mend)"
       d="M 445.36754,373.54089 C 531.61967,261.91532 647.1489,473.34391 694.9454,304.11531"
       id="path10076-2-8-9-8-3"
       inkscape:connector-curvature="0"
       sodipodi:nodetypes="cc" />
    <path
       style="fill:none;stroke:#000000;stroke-width:3;stroke-linecap:butt;stroke-linejoin:miter;stroke-miterlimit:4;stroke-opacity:1;stroke-dasharray:none;marker-end:url(#Arrow1Mend)"
       d="m 442.5104,243.18374 c 86.25213,-111.62557 173.20993,225.51731 234.57786,55.57442"
       id="path10076-2-8-9-8-3-3"
       inkscape:connector-curvature="0"
       sodipodi:nodetypes="cc" />
    <path
       style="fill:none;stroke:#000000;stroke-width:3;stroke-linecap:butt;stroke-linejoin:miter;stroke-miterlimit:4;stroke-opacity:1;stroke-dasharray:none;marker-end:url(#Arrow1Mend)"
       d="M 441.86671,113.6404 C 528.11884,2.0148341 592.93378,450.58629 660.73028,290.64339"
       id="path10076-2-8-9-8-3-3-8"
       inkscape:connector-curvature="0"
       sodipodi:nodetypes="cc" />
    <path
       style="fill:none;stroke:#000000;stroke-width:3;stroke-linecap:butt;stroke-linejoin:miter;stroke-miterlimit:4;stroke-opacity:1;stroke-dasharray:none;marker-end:url(#Arrow1Mend)"
       d="m 319.69864,116.39137 c -7.09106,-39.561342 -25.0503,-50.483927 -50.67081,-40.868708 -12.28011,4.608651 -34.06184,39.108368 33.4413,48.558688"
       id="path10076-5"
       inkscape:connector-curvature="0"
       sodipodi:nodetypes="csc" />
    <path
       style="fill:none;stroke:#000000;stroke-width:3;stroke-linecap:butt;stroke-linejoin:miter;stroke-miterlimit:4;stroke-opacity:1;stroke-dasharray:none;marker-end:url(#Arrow1Mend)"
       d="m 319.91038,246.47351 c -7.09106,-39.56133 -25.0503,-50.48392 -50.67081,-40.8687 -12.28011,4.60866 -34.06184,39.10836 33.4413,48.55868"
       id="path10076-5-0"
       inkscape:connector-curvature="0"
       sodipodi:nodetypes="csc" />
    <path
       style="fill:none;stroke:#000000;stroke-width:3;stroke-linecap:butt;stroke-linejoin:miter;stroke-miterlimit:4;stroke-opacity:1;stroke-dasharray:none;marker-end:url(#Arrow1Mend)"
       d="m 319.55197,376.3919 c -7.09106,-39.56135 -25.0503,-50.48393 -50.67081,-40.86872 -12.28011,4.60866 -34.06184,39.10838 33.4413,48.5587"
       id="path10076-5-06"
       inkscape:connector-curvature="0"
       sodipodi:nodetypes="csc" />
    <path
       style="fill:none;stroke:#000000;stroke-width:3;stroke-linecap:butt;stroke-linejoin:miter;stroke-miterlimit:4;stroke-opacity:1;stroke-dasharray:none;marker-end:url(#Arrow1Mend)"
       d="m 319.76371,506.47404 c -7.09106,-39.56133 -25.0503,-50.48392 -50.67081,-40.8687 -12.28011,4.60866 -34.06184,39.10836 33.4413,48.55868"
       id="path10076-5-0-6"
       inkscape:connector-curvature="0"
       sodipodi:nodetypes="csc" />
    <path
       style="fill:none;stroke:#000000;stroke-width:3;stroke-linecap:butt;stroke-linejoin:miter;stroke-miterlimit:4;stroke-opacity:1;stroke-dasharray:none;marker-end:url(#Arrow1Mend)"
       d="M 650.34826,258.17534 C 507.63624,204.98379 517.85218,-14.433183 437.15775,102.8934"
       id="path10076-2-8-9-0"
       inkscape:connector-curvature="0"
       sodipodi:nodetypes="cc" />
    <path
       style="fill:none;stroke:#000000;stroke-width:3;stroke-linecap:butt;stroke-linejoin:miter;stroke-miterlimit:4;stroke-opacity:1;stroke-dasharray:none;marker-end:url(#Arrow1Mend)"
       d="m 671.64516,163.8863 c -16.96642,25.91127 -17.88189,25.92986 -3.53553,66.58701"
       id="path10076-89"
       inkscape:connector-curvature="0"
       sodipodi:nodetypes="cc" />
    <path
       style="fill:none;stroke:#000000;stroke-width:3;stroke-linecap:butt;stroke-linejoin:miter;stroke-miterlimit:4;stroke-opacity:1;stroke-dasharray:none;marker-end:url(#Arrow1Mend)"
       d="M 689.21313,103.44901 C 645.07254,-7.5996872 411.71705,-45.588096 364.59405,93.881342"
       id="path10076-2-8-9-0-1"
       inkscape:connector-curvature="0"
       sodipodi:nodetypes="cc" />
    <path
       style="fill:none;stroke:#000000;stroke-width:3;stroke-linecap:butt;stroke-linejoin:miter;stroke-miterlimit:4;stroke-opacity:1;stroke-dasharray:none;marker-start:url(#Arrow1Mstart);marker-end:none"
       d="M 670.27183,103.57257 C 623.82081,16.756675 436.53068,-23.062959 376.36703,99.004903"
       id="path10076-2-8-9-0-1-3"
       inkscape:connector-curvature="0"
       sodipodi:nodetypes="cc" />
  </g>
</svg>
